<svg xmlns="http://www.w3.org/2000/svg" width="18.75" height="18.746" viewBox="0 0 18.75 18.746">
  <path id="instagram-brands" d="M9.3,36.392A4.806,4.806,0,1,0,14.109,41.2,4.8,4.8,0,0,0,9.3,36.392Zm0,7.931A3.125,3.125,0,1,1,12.427,41.2,3.13,3.13,0,0,1,9.3,44.323ZM15.426,36.2a1.121,1.121,0,1,1-1.121-1.121A1.118,1.118,0,0,1,15.426,36.2Zm3.183,1.138A5.548,5.548,0,0,0,17.1,33.405a5.584,5.584,0,0,0-3.928-1.514c-1.548-.088-6.187-.088-7.734,0A5.576,5.576,0,0,0,1.505,33.4,5.566,5.566,0,0,0-.009,37.329c-.088,1.548-.088,6.187,0,7.734a5.548,5.548,0,0,0,1.514,3.928,5.591,5.591,0,0,0,3.928,1.514c1.548.088,6.187.088,7.734,0A5.548,5.548,0,0,0,17.1,48.991a5.584,5.584,0,0,0,1.514-3.928c.088-1.548.088-6.182,0-7.73Zm-2,9.391a3.164,3.164,0,0,1-1.782,1.782c-1.234.489-4.162.376-5.526.376s-4.3.109-5.526-.376a3.164,3.164,0,0,1-1.782-1.782c-.489-1.234-.376-4.162-.376-5.526s-.109-4.3.376-5.526A3.164,3.164,0,0,1,3.777,33.89c1.234-.489,4.162-.376,5.526-.376s4.3-.109,5.526.376a3.164,3.164,0,0,1,1.782,1.782c.489,1.234.376,4.162.376,5.526S17.1,45.494,16.61,46.724Z" transform="translate(0.075 -31.825)" fill="#fff"/>
</svg>
