<svg xmlns="http://www.w3.org/2000/svg" width="19.703" height="16.003" viewBox="0 0 19.703 16.003">
  <path id="twitter-brands" d="M17.678,52.07c.013.175.013.35.013.525A11.411,11.411,0,0,1,6.2,64.085,11.412,11.412,0,0,1,0,62.272a8.354,8.354,0,0,0,.975.05A8.087,8.087,0,0,0,5.989,60.6a4.045,4.045,0,0,1-3.776-2.8,5.092,5.092,0,0,0,.763.063,4.271,4.271,0,0,0,1.063-.138A4.039,4.039,0,0,1,.8,53.758v-.05a4.067,4.067,0,0,0,1.825.513,4.044,4.044,0,0,1-1.25-5.4A11.478,11.478,0,0,0,9.7,53.045a4.559,4.559,0,0,1-.1-.925,4.042,4.042,0,0,1,6.989-2.763,7.95,7.95,0,0,0,2.563-.975,4.027,4.027,0,0,1-1.775,2.225,8.1,8.1,0,0,0,2.325-.625A8.68,8.68,0,0,1,17.678,52.07Z" transform="translate(0 -48.082)" fill="#fff"/>
</svg>
